<?xml version="1.0" encoding="UTF-8"?>
<!DOCTYPE svg PUBLIC "-//W3C//DTD SVG 1.1//EN" "http://www.w3.org/Graphics/SVG/1.1/DTD/svg11.dtd">
<!-- Creator: CorelDRAW 2020 (64-Bit) -->
<svg xmlns="http://www.w3.org/2000/svg" xml:space="preserve" width="18.6046mm" height="18.6046mm" version="1.1" style="shape-rendering:geometricPrecision; text-rendering:geometricPrecision; image-rendering:optimizeQuality; fill-rule:evenodd; clip-rule:evenodd"
viewBox="0 0 115.91 115.91"
 xmlns:xlink="http://www.w3.org/1999/xlink"
 xmlns:xodm="http://www.corel.com/coreldraw/odm/2003">
 <defs>
  <style type="text/css">
   <![CDATA[
    .fil2 {fill:#FEFEFE}
    .fil1 {fill:#D80000}
    .fil0 {fill:#FEFEFE;fill-opacity:0.701961}
   ]]>
  </style>
 </defs>
 <g id="Capa_x0020_1">
  <metadata id="CorelCorpID_0Corel-Layer"/>
  <path class="fil0" d="M3.18 0l109.54 0c1.75,0 3.18,1.43 3.18,3.18l0 109.54c0,1.75 -1.43,3.18 -3.18,3.18l-109.54 0c-1.75,0 -3.18,-1.43 -3.18,-3.18l0 -109.54c0,-1.75 1.43,-3.18 3.18,-3.18z"/>
  <path class="fil1" d="M56.18 15.9c-7.01,1.01 -9.01,5.74 -12.01,10.53l-17.24 28.15c-1.88,3.02 -16.03,25.5 -16.98,28.41 -1.98,6.08 0.81,12.38 6.13,15.42 2.96,1.69 5.92,1.6 9.63,1.6l56.64 0c7.14,0 15.06,1.08 19.63,-3.06 4.78,-4.33 6.1,-11.09 2.86,-16.44l-34.46 -56.33c-1.77,-2.89 -2.66,-4.42 -5.11,-6.13 -2.34,-1.63 -5.6,-2.65 -9.08,-2.15z"/>
  <g id="_1825632686672">
   <path class="fil2" d="M56.89 38.35c-2.62,0.85 -2.33,2.98 -2.33,6.02l-0.01 16.98c0.03,2.43 1.73,4.75 4.57,3.72 2.39,-0.86 2.23,-3.34 2.22,-6.07l0 -16.98c-0.04,-2.58 -1.75,-4.55 -4.47,-3.67z"/>
   <path class="fil2" d="M56.8 68.85c-5.74,1.58 -3.47,10.3 2.34,8.74 5.73,-1.54 3.41,-10.32 -2.34,-8.74z"/>
  </g>
 </g>
</svg>
