<?xml version="1.0" encoding="UTF-8"?>
<!DOCTYPE svg PUBLIC "-//W3C//DTD SVG 1.1//EN" "http://www.w3.org/Graphics/SVG/1.1/DTD/svg11.dtd">
<!-- Creator: CorelDRAW 2020 (64-Bit) -->
<svg xmlns="http://www.w3.org/2000/svg" xml:space="preserve" width="20.6376mm" height="20.6376mm" version="1.1" style="shape-rendering:geometricPrecision; text-rendering:geometricPrecision; image-rendering:optimizeQuality; fill-rule:evenodd; clip-rule:evenodd"
viewBox="0 0 134.22 134.22"
 xmlns:xlink="http://www.w3.org/1999/xlink"
 xmlns:xodm="http://www.corel.com/coreldraw/odm/2003">
 <defs>
  <style type="text/css">
   <![CDATA[
    .fil0 {fill:#FEFEFE}
    .fil1 {fill:#ED3237}
   ]]>
  </style>
 </defs>
 <g id="Capa_x0020_1">
  <metadata id="CorelCorpID_0Corel-Layer"/>
  <circle class="fil0" cx="67.11" cy="67.11" r="67.11"/>
  <path class="fil1" d="M65.57 30.73c-6.06,0.88 -7.8,4.96 -10.39,9.11l-14.92 24.35c-1.62,2.61 -13.87,22.06 -14.69,24.58 -1.72,5.26 0.7,10.71 5.3,13.34 2.56,1.46 5.12,1.38 8.33,1.38l49 0c6.18,0 13.03,0.93 16.98,-2.65 4.14,-3.75 5.28,-9.6 2.47,-14.23l-29.81 -48.73c-1.53,-2.5 -2.31,-3.82 -4.42,-5.3 -2.02,-1.41 -4.85,-2.3 -7.85,-1.86z"/>
  <path class="fil0" d="M66.18 54.81c-2.26,0.73 -2.01,2.58 -2.01,5.2l-0.01 14.69c0.03,2.1 1.5,4.11 3.96,3.22 2.07,-0.74 1.93,-2.89 1.93,-5.25l0 -14.69c-0.03,-2.23 -1.51,-3.94 -3.87,-3.18z"/>
  <path class="fil0" d="M66.1 81.19c-4.96,1.36 -3,8.91 2.02,7.56 4.95,-1.33 2.95,-8.93 -2.02,-7.56z"/>
 </g>
</svg>
