<?xml version="1.0" encoding="UTF-8"?>
<!DOCTYPE svg PUBLIC "-//W3C//DTD SVG 1.1//EN" "http://www.w3.org/Graphics/SVG/1.1/DTD/svg11.dtd">
<!-- Creator: CorelDRAW 2020 (64-Bit) -->
<svg xmlns="http://www.w3.org/2000/svg" xml:space="preserve" width="18.6046mm" height="18.6046mm" version="1.1" style="shape-rendering:geometricPrecision; text-rendering:geometricPrecision; image-rendering:optimizeQuality; fill-rule:evenodd; clip-rule:evenodd"
viewBox="0 0 86.01 86.01"
 xmlns:xlink="http://www.w3.org/1999/xlink"
 xmlns:xodm="http://www.corel.com/coreldraw/odm/2003">
 <defs>
  <style type="text/css">
   <![CDATA[
    .fil1 {fill:#D80000}
    .fil0 {fill:#FEFEFE;fill-opacity:0.701961}
   ]]>
  </style>
 </defs>
 <g id="Capa_x0020_1">
  <metadata id="CorelCorpID_0Corel-Layer"/>
  <path class="fil0" d="M2.36 0l81.28 0c1.3,0 2.36,1.06 2.36,2.36l0 81.28c0,1.3 -1.06,2.36 -2.36,2.36l-81.28 0c-1.3,0 -2.36,-1.06 -2.36,-2.36l0 -81.28c0,-1.3 1.06,-2.36 2.36,-2.36z"/>
  <path class="fil1" d="M42.63 71.86c5.15,-1.86 18.1,-19.95 20.58,-29.48 3.96,-15.21 -5.61,-28.22 -20,-28.23 -18.55,-0.01 -30.2,19.93 -12.67,44.82 2.84,4.03 7.93,10.43 12.09,12.89zm0.38 -46.65c5.62,0 10.17,4.55 10.17,10.17 0,5.62 -4.55,10.17 -10.17,10.17 -5.62,0 -10.17,-4.55 -10.17,-10.17 0,-5.62 4.55,-10.17 10.17,-10.17z"/>
 </g>
</svg>
