<?xml version="1.0" encoding="UTF-8"?>
<!DOCTYPE svg PUBLIC "-//W3C//DTD SVG 1.1//EN" "http://www.w3.org/Graphics/SVG/1.1/DTD/svg11.dtd">
<!-- Creator: CorelDRAW 2020 (64-Bit) -->
<svg xmlns="http://www.w3.org/2000/svg" xml:space="preserve" width="18.6046mm" height="18.6046mm" version="1.1" style="shape-rendering:geometricPrecision; text-rendering:geometricPrecision; image-rendering:optimizeQuality; fill-rule:evenodd; clip-rule:evenodd"
viewBox="0 0 98.97 98.97"
 xmlns:xlink="http://www.w3.org/1999/xlink"
 xmlns:xodm="http://www.corel.com/coreldraw/odm/2003">
 <defs>
  <style type="text/css">
   <![CDATA[
    .fil2 {fill:#FEFEFE}
    .fil1 {fill:#D80000}
    .fil0 {fill:#FEFEFE;fill-opacity:0.701961}
   ]]>
  </style>
 </defs>
 <g id="Capa_x0020_1">
  <metadata id="CorelCorpID_0Corel-Layer"/>
  <path class="fil0" d="M2.72 0l93.54 0c1.5,0 2.72,1.22 2.72,2.72l0 93.54c0,1.5 -1.22,2.72 -2.72,2.72l-93.54 0c-1.5,0 -2.72,-1.22 -2.72,-2.72l0 -93.54c0,-1.5 1.22,-2.72 2.72,-2.72z"/>
  <g id="_1861060983872">
   <path class="fil1" d="M63.05 16.16c-3.66,1.09 -2.83,4.75 -2.83,8.82l0 47.22c0,3.6 -0.76,8.66 1.69,10.15 2.37,1.44 6.71,-0.51 9.24,-1.2 3.16,-0.86 6.25,-1.67 9.37,-2.54 3.16,-0.88 6.85,-0.83 7.09,-4.58 0.24,-3.67 0.01,-8.16 0.01,-11.92l0 -35.3c0.01,-5.44 -1.33,-5.16 -5.66,-6.23 -2.92,-0.72 -17.16,-4.94 -18.9,-4.42z"/>
   <path class="fil1" d="M11.26 49.5c0.93,0.93 5.33,3.3 6.83,4.21 2.27,1.38 4.5,2.72 6.85,4.14 2.27,1.37 4.62,2.79 6.88,4.13 2.12,1.26 4.89,3.17 6.83,4.1l0.09 -8.75 17.16 0 -0 -15.56 -17.13 -0.11 -0.06 -8.65c-0.85,0.13 -2.58,1.4 -3.47,1.94l-10.31 6.2c-1.88,1.14 -13.01,7.68 -13.68,8.36z"/>
   <path class="fil1" d="M57.63 24.56l0.04 -3.47 -12.61 0.03c-3.3,0.44 -3.05,3.58 -3.05,6.84 0,3.26 -0.07,6.6 0.02,9.85l3.83 0c0.16,-12.18 -1.46,-13.31 5.33,-13.3 2.03,0 4.47,-0.12 6.44,0.06z"/>
   <path class="fil1" d="M45.08 77.89l12.59 0.03 -0.02 -3.48c-1.88,0.19 -4.29,0.06 -6.23,0.06 -6.88,0 -5.5,-0.73 -5.55,-13.27l-3.84 -0.05c-0.03,3.3 -0.01,6.59 -0.01,9.87 0,3.25 -0.25,6.43 3.06,6.83z"/>
   <ellipse class="fil2" cx="66.31" cy="49.17" rx="1.81" ry="2.52"/>
  </g>
 </g>
</svg>
