<?xml version="1.0" encoding="UTF-8"?>
<!DOCTYPE svg PUBLIC "-//W3C//DTD SVG 1.1//EN" "http://www.w3.org/Graphics/SVG/1.1/DTD/svg11.dtd">
<!-- Creator: CorelDRAW 2020 (64-Bit) -->
<svg xmlns="http://www.w3.org/2000/svg" xml:space="preserve" width="20.6376mm" height="20.6376mm" version="1.1" style="shape-rendering:geometricPrecision; text-rendering:geometricPrecision; image-rendering:optimizeQuality; fill-rule:evenodd; clip-rule:evenodd"
viewBox="0 0 156.11 156.11"
 xmlns:xlink="http://www.w3.org/1999/xlink"
 xmlns:xodm="http://www.corel.com/coreldraw/odm/2003">
 <defs>
  <style type="text/css">
   <![CDATA[
    .fil0 {fill:#FEFEFE}
    .fil1 {fill:#ED3237}
   ]]>
  </style>
 </defs>
 <g id="Capa_x0020_1">
  <metadata id="CorelCorpID_0Corel-Layer"/>
  <circle class="fil0" cx="78.05" cy="78.05" r="78.05"/>
  <g id="_2273160211200">
   <path class="fil1" d="M96.26 33.31c-4.91,1.46 -3.8,6.37 -3.8,11.84l0 63.39c0,4.83 -1.02,11.62 2.26,13.62 3.18,1.94 9,-0.68 12.4,-1.61 4.24,-1.16 8.39,-2.25 12.57,-3.41 4.24,-1.18 9.2,-1.11 9.52,-6.15 0.32,-4.92 0.01,-10.95 0.01,-16l0 -47.39c0.02,-7.3 -1.78,-6.92 -7.6,-8.37 -3.91,-0.97 -23.04,-6.63 -25.37,-5.94z"/>
   <path class="fil1" d="M26.74 78.08c1.25,1.25 7.15,4.43 9.17,5.66 3.05,1.85 6.04,3.65 9.2,5.56 3.04,1.84 6.21,3.75 9.23,5.54 2.85,1.69 6.56,4.25 9.17,5.5l0.12 -11.75 23.04 0 -0 -20.89 -22.99 -0.15 -0.08 -11.61c-1.15,0.18 -3.47,1.88 -4.66,2.6l-13.83 8.32c-2.52,1.53 -17.46,10.31 -18.37,11.22z"/>
   <path class="fil1" d="M88.99 44.6l0.06 -4.66 -16.92 0.04c-4.44,0.6 -4.09,4.81 -4.09,9.18 0,4.38 -0.1,8.86 0.02,13.22l5.13 0.01c0.21,-16.35 -1.95,-17.87 7.15,-17.86 2.72,0 6,-0.17 8.65,0.08z"/>
   <path class="fil1" d="M72.14 116.18l16.9 0.04 -0.03 -4.67c-2.53,0.25 -5.75,0.08 -8.36,0.09 -9.24,0.01 -7.38,-0.98 -7.45,-17.81l-5.16 -0.07c-0.04,4.42 -0.01,8.84 -0.01,13.24 -0,4.36 -0.34,8.63 4.11,9.17z"/>
   <ellipse class="fil0" cx="100.64" cy="77.63" rx="2.43" ry="3.38"/>
  </g>
 </g>
</svg>
