<?xml version="1.0" encoding="UTF-8"?>
<!DOCTYPE svg PUBLIC "-//W3C//DTD SVG 1.1//EN" "http://www.w3.org/Graphics/SVG/1.1/DTD/svg11.dtd">
<!-- Creator: CorelDRAW 2020 (64-Bit) -->
<svg xmlns="http://www.w3.org/2000/svg" xml:space="preserve" width="164.101mm" height="164.101mm" version="1.1" style="shape-rendering:geometricPrecision; text-rendering:geometricPrecision; image-rendering:optimizeQuality; fill-rule:evenodd; clip-rule:evenodd"
viewBox="0 0 4188.1 4188.1"
 xmlns:xlink="http://www.w3.org/1999/xlink"
 xmlns:xodm="http://www.corel.com/coreldraw/odm/2003">
 <defs>
  <style type="text/css">
   <![CDATA[
    .fil1 {fill:#FEFEFE}
    .fil0 {fill:#ED3237}
    .fil2 {fill:#FEFEFE;fill-rule:nonzero}
   ]]>
  </style>
 </defs>
 <g id="Capa_x0020_1">
  <metadata id="CorelCorpID_0Corel-Layer"/>
  <path class="fil0" d="M2094.05 0c1156.51,0 2094.05,937.54 2094.05,2094.05 0,1156.51 -937.54,2094.05 -2094.05,2094.05 -1156.51,0 -2094.05,-937.54 -2094.05,-2094.05 0,-1156.51 937.54,-2094.05 2094.05,-2094.05z"/>
  <ellipse class="fil1" cx="2128.81" cy="3647.17" rx="378.55" ry="125.04"/>
  <path class="fil1" d="M2126.8 3407.77c651.23,-699.74 1931.99,-3004.99 3.78,-2991.82 -2122.53,14.49 -603.71,2420.35 -3.78,2991.82zm-32.75 -2588.55c304.59,0 551.5,246.92 551.5,551.5 0,304.59 -246.92,551.5 -551.5,551.5 -304.59,0 -551.5,-246.92 -551.5,-551.5 0,-304.59 246.92,-551.5 551.5,-551.5z"/>
  <path class="fil2" d="M2407.97 1522.41c0,23.38 -5.63,48.63 -17.23,75.76 -11.43,27.13 -29.52,53.75 -54.26,79.86 -24.57,26.28 -56.14,47.44 -94.36,63.82 -38.39,16.21 -83.1,24.4 -134.12,24.4 -38.56,0 -73.71,-3.58 -105.45,-10.92 -31.57,-7.34 -60.41,-18.77 -86.17,-34.3 -25.77,-15.36 -49.65,-35.83 -71.32,-61.09 -19.28,-23.04 -35.83,-48.63 -49.49,-77.13 -13.65,-28.49 -23.89,-59.04 -30.71,-91.29 -6.83,-32.42 -10.24,-66.72 -10.24,-103.06 0,-58.87 8.53,-111.77 25.77,-158.35 17.06,-46.76 41.81,-86.68 73.71,-119.79 32.08,-33.1 69.45,-58.36 112.45,-75.76 43,-17.23 88.9,-25.93 137.53,-25.93 59.38,0 112.11,11.77 158.52,35.49 46.24,23.55 81.73,52.9 106.48,87.71 24.57,34.81 37.03,67.57 37.03,98.63 0,17.06 -6.14,31.91 -18.09,45.05 -11.94,12.97 -26.45,19.45 -43.51,19.45 -18.94,0 -33.27,-4.61 -42.66,-13.48 -9.56,-9.04 -20.13,-24.57 -31.74,-46.58 -19.45,-36.35 -42.15,-63.48 -68.25,-81.56 -26.28,-17.92 -58.36,-26.96 -96.75,-26.96 -61.09,0 -109.55,23.21 -145.72,69.45 -36.17,46.41 -54.26,112.28 -54.26,197.6 0,56.99 8.02,104.43 24.06,142.31 15.87,37.88 38.56,66.04 67.91,84.81 29.35,18.6 63.65,27.99 103.06,27.99 42.66,0 78.66,-10.58 108.19,-31.74 29.52,-21.16 51.7,-52.22 66.72,-93.34 6.31,-19.28 14.16,-34.98 23.55,-47.27 9.21,-12.12 24.23,-18.26 44.88,-18.26 17.75,0 32.93,6.14 45.56,18.6 12.63,12.29 18.94,27.64 18.94,45.9z"/>
 </g>
</svg>
