<?xml version="1.0" encoding="UTF-8"?>
<!DOCTYPE svg PUBLIC "-//W3C//DTD SVG 1.1//EN" "http://www.w3.org/Graphics/SVG/1.1/DTD/svg11.dtd">
<!-- Creator: CorelDRAW 2020 (64-Bit) -->
<svg xmlns="http://www.w3.org/2000/svg" xml:space="preserve" width="261.992mm" height="99.1073mm" version="1.1" style="shape-rendering:geometricPrecision; text-rendering:geometricPrecision; image-rendering:optimizeQuality; fill-rule:evenodd; clip-rule:evenodd"
viewBox="0 0 4855.52 1836.76"
 xmlns:xlink="http://www.w3.org/1999/xlink"
 xmlns:xodm="http://www.corel.com/coreldraw/odm/2003">
 <defs>
  <style type="text/css">
   <![CDATA[
    .fil0 {fill:#606062;fill-rule:nonzero}
   ]]>
  </style>
 </defs>
 <g id="Capa_x0020_1">
  <metadata id="CorelCorpID_0Corel-Layer"/>
  <path class="fil0" d="M55.71 257.06c0,-96.12 18.4,-163 55.19,-200.66 36.8,-37.66 101.62,-56.4 194.81,-56.4l87.69 0c92.33,0 157.16,16.16 194.47,48.66 37.31,32.5 55.88,87.52 55.88,165.24l0 32.67 -85.63 0 0 -20.63c0,-56.74 -11.52,-95.43 -34.73,-116.23 -23.21,-20.81 -68.61,-31.29 -136.18,-31.29l-57.94 0c-45.22,0 -78.24,2.75 -99.04,8.25 -20.63,5.67 -37.83,14.96 -51.58,28.03 -13.76,12.72 -23.39,29.4 -29.06,50.04 -5.5,20.63 -8.25,58.29 -8.25,112.97l0 213.55c0,54.33 2.75,91.82 8.25,112.62 5.67,20.63 15.3,37.31 29.06,50.04 13.76,13.07 30.43,22.35 50.21,28.03 19.6,5.5 53.13,8.25 100.42,8.25l57.94 0c69.29,0 115.37,-10.83 138.24,-32.67 22.7,-21.84 34.22,-63.79 34.22,-125.52 0,-9.46 -0.17,-16.68 -0.34,-21.67 -0.17,-4.99 -0.34,-9.8 -0.69,-14.1l85.11 0 0 49.35c0,83.39 -18.05,141.51 -54.16,174.01 -36.11,32.67 -101.62,49 -196.19,49l-87.69 0c-93.19,0 -158.01,-18.91 -194.81,-56.57 -36.8,-37.66 -55.19,-104.54 -55.19,-200.66l0 -254.3zm1134.66 502.24l0 -750.02 83.56 0 0 750.02 -83.56 0zm568.97 -670.58l0 -79.44 561.22 0 0 79.44 -239.34 0 0 670.58 -83.56 0 0 -670.58 -238.31 0zm1303.68 670.58l-81.5 0 0 -332.02 -310.53 -417.99 97.83 0 252.93 349.56 252.58 -349.56 98.18 0 -309.5 416.62 0 333.4zm-2879.55 811.29l324.97 0 -149.76 -404.24 -26.65 0 -148.56 404.24zm-183.46 266.17l277.17 -750.02 136.52 0 278.55 750.02 -85.63 0 -71.53 -191.89 -379.48 0 -69.98 191.89 -85.63 0zm1199.31 0l0 -750.02 81.5 0 0 671.61 425.04 0 0 78.41 -506.54 0zm1022.21 0l0 -750.02 526.14 0 0 79.44 -443.61 0 0 245.53 431.06 0 0 76.34 -431.06 0 0 270.29 443.61 0 0 78.41 -526.14 0zm1387.41 -670.58l-239.35 0 0 300.21 239.35 0c62.42,0 103.34,-7.74 122.59,-23.21 19.43,-15.48 29.06,-43.16 29.06,-83.05l0 -87.69c0,-40.58 -9.29,-68.43 -28.03,-83.57 -18.57,-15.13 -59.84,-22.7 -123.63,-22.7zm-321.88 670.58l0 -750.02 338.55 0c84.25,0 142.2,12.55 174.01,37.49 31.81,24.93 47.63,69.46 47.63,133.6l0 113.31c0,39.38 -7.91,70.33 -23.9,92.68 -15.99,22.35 -40.24,36.28 -72.9,41.96 35.59,8.43 60.7,23.73 75.14,45.91 14.44,22.18 21.67,57.09 21.67,104.89l0 180.2 -86.66 0 0 -154.58c0,-53.65 -8.43,-89.93 -25.45,-109.01 -17.02,-18.91 -50.21,-28.37 -99.56,-28.37l-266 0 0 291.96 -82.53 0zm1007.25 -670.58l0 -79.44 561.22 0 0 79.44 -239.34 0 0 670.58 -83.56 0 0 -670.58 -238.31 0z"/>
 </g>
</svg>
