<?xml version="1.0" encoding="UTF-8"?>
<!DOCTYPE svg PUBLIC "-//W3C//DTD SVG 1.1//EN" "http://www.w3.org/Graphics/SVG/1.1/DTD/svg11.dtd">
<!-- Creator: CorelDRAW 2020 (64-Bit) -->
<svg xmlns="http://www.w3.org/2000/svg" xml:space="preserve" width="164.101mm" height="164.101mm" version="1.1" style="shape-rendering:geometricPrecision; text-rendering:geometricPrecision; image-rendering:optimizeQuality; fill-rule:evenodd; clip-rule:evenodd"
viewBox="0 0 5185.55 5185.55"
 xmlns:xlink="http://www.w3.org/1999/xlink"
 xmlns:xodm="http://www.corel.com/coreldraw/odm/2003">
 <defs>
  <style type="text/css">
   <![CDATA[
    .fil1 {fill:#FEFEFE}
    .fil0 {fill:#3498DB}
   ]]>
  </style>
 </defs>
 <g id="Capa_x0020_1">
  <metadata id="CorelCorpID_0Corel-Layer"/>
  <path class="fil0" d="M2592.78 0c1431.95,0 2592.78,1160.83 2592.78,2592.78 0,1431.95 -1160.83,2592.78 -2592.78,2592.78 -1431.95,0 -2592.78,-1160.83 -2592.78,-2592.78 0,-1431.95 1160.83,-2592.78 2592.78,-2592.78z"/>
  <g id="_1292727940176">
   <ellipse class="fil1" cx="2635.82" cy="4515.79" rx="468.71" ry="154.82"/>
   <path class="fil1" d="M2633.33 4219.38c806.32,-866.39 2392.12,-3720.67 4.68,-3704.37 -2628.03,17.95 -747.49,2996.79 -4.68,3704.37zm58.64 -2670.37l0 574.74c0,39.77 -9.45,69.85 -28.34,90.24 -18.89,20.38 -42.76,30.58 -71.84,30.58 -29.08,0 -52.7,-10.44 -70.85,-31.32 -18.14,-20.88 -27.34,-50.71 -27.34,-89.49l0 -568.77c0,-39.53 9.2,-69.11 27.34,-88.99 18.15,-19.89 41.77,-29.83 70.85,-29.83 29.08,0 52.95,9.94 71.84,29.83 18.89,19.89 28.34,47.73 28.34,83.03zm-98.19 -205.33c-27.59,0 -51.21,-8.45 -70.85,-25.36 -19.64,-16.91 -29.33,-41.02 -29.33,-72.09 0,-27.84 9.94,-50.96 30.08,-69.11 20.14,-18.14 43.5,-27.34 70.1,-27.34 25.85,0 48.47,8.2 68.36,24.61 19.89,16.66 29.83,40.52 29.83,71.84 0,30.58 -9.69,54.44 -29.08,71.6 -19.39,17.15 -42.26,25.85 -69.11,25.85zm-1 -329.35c377.13,0 682.85,305.72 682.85,682.85 0,377.13 -305.72,682.85 -682.85,682.85 -377.13,0 -682.85,-305.72 -682.85,-682.85 0,-377.13 305.72,-682.85 682.85,-682.85z"/>
  </g>
 </g>
</svg>
