<?xml version="1.0" encoding="UTF-8"?>
<!DOCTYPE svg PUBLIC "-//W3C//DTD SVG 1.1//EN" "http://www.w3.org/Graphics/SVG/1.1/DTD/svg11.dtd">
<!-- Creator: CorelDRAW 2020 (64-Bit) -->
<svg xmlns="http://www.w3.org/2000/svg" xml:space="preserve" width="181.227mm" height="181.227mm" version="1.1" style="shape-rendering:geometricPrecision; text-rendering:geometricPrecision; image-rendering:optimizeQuality; fill-rule:evenodd; clip-rule:evenodd"
viewBox="0 0 2578.92 2578.92"
 xmlns:xlink="http://www.w3.org/1999/xlink"
 xmlns:xodm="http://www.corel.com/coreldraw/odm/2003">
 <defs>
  <style type="text/css">
   <![CDATA[
    .fil1 {fill:#FDFEFE}
    .fil0 {fill:url(#id0)}
   ]]>
  </style>
  <linearGradient id="id0" gradientUnits="userSpaceOnUse" x1="-0" y1="1289.46" x2="2578.92" y2="1289.46">
   <stop offset="0" style="stop-opacity:1; stop-color:#00F190"/>
   <stop offset="1" style="stop-opacity:1; stop-color:#00A1FC"/>
  </linearGradient>
 </defs>
 <g id="Capa_x0020_1">
  <metadata id="CorelCorpID_0Corel-Layer"/>
  <circle class="fil0" cx="1289.46" cy="1289.46" r="1289.46"/>
  <path class="fil1" d="M972.26 473.4c-24.28,29.56 -45.82,42.09 -72.72,73.87 -127.7,150.88 -151.15,387.89 -51.8,561.51 52.94,92.52 68.37,92.43 125.46,150.46 12.52,12.73 3.21,0.55 10.9,13.5 -150.58,46.98 -295.36,171.67 -388.15,292.58 -100.54,131.01 -164.71,303.4 -170.27,514.25l156.15 -0.07c8.06,-238.66 87.43,-363.15 198.15,-491.51 19.31,-22.39 63.34,-57.98 92.14,-79.41 108.54,-80.77 242.26,-127.54 385.43,-135.51 218.54,-10.95 372.55,66.74 523.63,196.79 24.91,21.44 57.62,64.1 81.37,95.48 89.25,117.89 129.63,256.92 134.89,413.8l155.78 0.45c0.35,-69.33 -7.7,-133.17 -22.61,-198.55 -14.26,-62.51 -39.79,-111.29 -55.37,-165.31 -12.27,-14.17 -28.69,-53.08 -39.88,-72.31 -32.49,-55.86 -55.73,-83.91 -95.94,-133.09 -66.87,-81.79 -224.59,-200.33 -344.26,-237.54l19.56 -21.03c5.96,-5.2 13.17,-11.79 18.75,-17.18 190.48,-183.83 214.31,-451.95 57.29,-672.17 -21.6,-30.29 -66.6,-74.46 -96.27,-96.55 -11.44,-8.52 -15.53,-9.55 -18.71,-17.41 -78.86,-29.4 -135.22,-95.45 -317.48,-84.52 -171.48,10.29 -218.46,76.34 -286.05,109.47zm254.15 51.27c-169.55,30.5 -316.48,195.92 -277.79,405.11 31.27,169.08 199.72,320.17 410.04,277.16 166.96,-34.15 312.29,-196.05 274.36,-404.81 -31.12,-171.26 -197.14,-315.14 -406.6,-277.45z"/>
 </g>
</svg>
